:SAMPLES-PER-SECOND 30
:FULLY-SPECIFIED
:DEGREES
292
root  -3.5012 40.9438 -1.02853 0.981613 -74.4679 1.45334
RightUpLeg  2.70606 -1.59678 0.194232
RightLeg  -6.27906 -34.9729 4.80058
RightFoot  0.33228 -0.0547015 0.578658
RightToes  -3.1126e-008 1.75238e-005 3.56266e-009
Spine  6.5853 1.16728 -3.08433
Spine1  -11.4064 0.859759 3.33089
HEad  0.411571 -5.00306 -0.351766
LeftShoulder1  0.716754 0.60312 -18.087
LeftArm  -26.2014 -22.3131 -48.5828
LeftForeArm  64.3916 -77.9797 -52.0909
LeftHand  -0.652693 -4.42411 8.00195
RightShoulder  1.42322 1.85216 20.2397
RightArm  -12.2505 -11.8927 42.7177
RightForeArm  95.828 79.3118 102.936
RightHand  -0.0520086 8.03279 -0.824374
LeftUpLeg  -1.96016 0.730568 3.91568
LeftLeg  -3.01661 2.73385 -0.0605312
LeftFoot  2.99655 0.59092 -4.84188
LeftToes  4.78049e-008 1.46235e-008 1.34219e-009
293
root  -3.51602 40.9439 -1.06867 1.14929 -74.6285 1.35138
RightUpLeg  2.63995 -1.5269 0.290714
RightLeg  -6.31164 -34.8902 4.82624
RightFoot  0.325472 -0.0503121 0.530074
RightToes  -3.1126e-008 1.75238e-005 3.56266e-009
Spine  6.63592 1.24511 -2.61152
Spine1  -11.5678 1.00688 2.56362
HEad  0.232052 -5.01242 -0.189844
LeftShoulder1  0.706307 0.636347 -18.0026
LeftArm  -24.4985 -17.4626 -49.0974
LeftForeArm  67.8225 -78.4509 -55.0726
LeftHand  -0.562516 -4.30499 7.01526
RightShoulder  1.55874 2.25511 20.7763
RightArm  -12.4202 -9.78569 42.1989
RightForeArm  93.797 79.4127 100.622
RightHand  -0.0819224 8.18202 -1.07822
LeftUpLeg  -1.94077 0.792926 4.02577
LeftLeg  -3.14886 2.83521 -0.0733516
LeftFoot  3.05219 0.602389 -4.91639
LeftToes  4.78049e-008 1.46235e-008 1.34219e-009
294
root  -3.53197 40.9442 -1.11141 1.37157 -74.7286 1.2149
RightUpLeg  2.57225 -1.53918 0.347011
RightLeg  -6.35754 -34.7443 4.94805
RightFoot  0.30123 -0.0489106 0.525319
RightToes  -3.1126e-008 1.75238e-005 3.56266e-009
Spine  6.54563 1.45529 -2.11357
Spine1  -11.4943 1.27533 1.89919
HEad  0.116755 -5.29031 -0.133943
LeftShoulder1  0.770943 0.398751 -18.2227
LeftArm  -23.2884 -12.5206 -49.9941
LeftForeArm  69.8855 -78.6596 -56.3985
LeftHand  -0.524587 -4.25415 6.59801
RightShoulder  1.53998 2.19652 20.717
RightArm  -12.8284 -7.35277 42.1736
RightForeArm  92.8447 79.4856 99.1028
RightHand  -0.0758607 8.19639 -1.02566
LeftUpLeg  -2.03296 0.856684 4.14644
LeftLeg  -3.11046 2.86269 -0.0684446
LeftFoot  3.03512 0.61883 -5.05161
LeftToes  4.78049e-008 1.46235e-008 1.34219e-009
295
root  -3.53548 40.9452 -1.14305 1.26897 -75.089 1.45628
RightUpLeg  2.29399 -1.66358 0.248979
RightLeg  -6.07425 -34.2893 4.89345
RightFoot  0.205203 -0.0470398 0.510837
RightToes  -3.1126e-008 1.75238e-005 3.56266e-009
Spine  6.44938 1.68691 -1.90476
Spine1  -11.1823 1.52388 1.67537
HEad  -0.687159 -4.99247 -0.0760249
LeftShoulder1  0.769945 0.488503 -18.9747
LeftArm  -21.6338 -6.19709 -49.8685
LeftForeArm  74.8319 -79.2876 -62.5872
LeftHand  -0.556456 -3.85472 7.24958
RightShoulder  1.49517 2.12374 20.2408
RightArm  -13.3239 -4.11039 42.5212
RightForeArm  90.7436 79.5559 96.7408
RightHand  -0.0621947 8.14948 -0.910358
LeftUpLeg  -2.06944 0.901861 4.18695
LeftLeg  -3.2229 3.18225 -0.160861
LeftFoot  3.0497 0.647076 -5.27064
LeftToes  4.78049e-008 1.46235e-008 1.34219e-009
296
root  -3.5633 40.9479 -1.16586 1.20605 -75.8031 1.59435
RightUpLeg  2.2218 -1.60013 0.261051
RightLeg  -6.1137 -33.6597 4.85196
RightFoot  0.262344 -0.0445981 0.485158
RightToes  -3.1126e-008 1.75238e-005 3.56266e-009
Spine  6.50257 1.96417 -1.19018
Spine1  -11.3042 1.88696 0.703673
HEad  -0.864537 -4.29414 -0.43946
LeftShoulder1  0.800268 0.412678 -19.3596
LeftArm  -20.866 0.0536982 -50.3033
LeftForeArm  79.3109 -79.6594 -66.7835
LeftHand  -0.533734 -3.9391 6.90972
RightShoulder  1.50996 2.22039 20.0324
RightArm  -13.8639 -0.691917 42.7665
RightForeArm  88.3436 79.5897 94.4621
RightHand  -0.0787996 8.02339 -1.05657
LeftUpLeg  -1.89503 1.0294 4.27989
LeftLeg  -3.40836 3.75752 -0.288317
LeftFoot  3.07479 0.647347 -5.26485
LeftToes  4.78049e-008 1.46235e-008 1.34219e-009
297
root  -3.59549 40.9523 -1.1734 1.11697 -76.5285 1.65598
RightUpLeg  2.32642 -1.56629 0.26956
RightLeg  -6.26606 -32.9651 4.86596
RightFoot  0.340792 -0.0401595 0.426252
RightToes  -3.1126e-008 1.75238e-005 3.56266e-009
Spine  6.59093 2.1582 0.127467
Spine1  -11.3687 2.24668 -1.13946
HEad  -0.76209 -4.46332 -0.280419
LeftShoulder1  0.813106 0.364655 -19.3755
LeftArm  -20.2032 6.8338 -50.7207
LeftForeArm  83.3762 -79.9312 -70.5777
LeftHand  -0.566106 -4.21825 7.11787
RightShoulder  1.49799 2.17227 20.0474
RightArm  -14.4134 3.00754 42.8799
RightForeArm  86.4472 79.5719 93.2681
RightHand  -0.108543 7.76974 -1.32682
LeftUpLeg  -1.59084 1.07931 4.3391
LeftLeg  -3.59402 4.43848 -0.328924
LeftFoot  2.99302 0.685588 -5.59474
LeftToes  4.78049e-008 1.46235e-008 1.34219e-009
298
root  -3.63335 40.9569 -1.18399 0.859879 -77.687 1.88095
RightUpLeg  2.3638 -1.44907 0.279006
RightLeg  -6.27055 -31.9091 4.69526
RightFoot  0.407591 -0.0432514 0.482112
RightToes  -3.1126e-008 1.75238e-005 3.56266e-009
Spine  6.66372 2.52893 1.0659
Spine1  -11.4155 2.73927 -2.5336
HEad  -0.706331 -4.72768 -0.00829198
LeftShoulder1  0.743895 0.609438 -19.1523
LeftArm  -19.8023 14.3095 -51.7777
LeftForeArm  88.2496 -80.1877 -75.0908
LeftHand  -0.585325 -3.97034 7.5262
RightShoulder  1.48248 2.14124 19.9062
RightArm  -14.9627 7.29877 42.9145
RightForeArm  84.198 79.5142 92.4144
RightHand  -0.129567 7.58436 -1.52412
LeftUpLeg  -1.18764 1.17009 4.39881
LeftLeg  -3.78859 5.43378 -0.426579
LeftFoot  2.90328 0.698268 -5.72723
LeftToes  4.78049e-008 1.46235e-008 1.34219e-009
299
root  -3.69543 40.9613 -1.17503 0.459122 -78.9719 2.23911
RightUpLeg  2.27944 -1.37571 0.248477
RightLeg  -5.87349 -30.7117 4.30247
RightFoot  0.337849 -0.0477153 0.557249
RightToes  -3.1126e-008 1.75238e-005 3.56266e-009
Spine  6.58666 2.88052 1.80757
Spine1  -11.4196 3.18082 -3.57048
HEad  -0.543724 -4.67937 -0.0333766
LeftShoulder1  0.604188 1.0877 -18.3824
LeftArm  -20.4751 22.1132 -54.1918
LeftForeArm  93.6877 -80.3916 -80.0594
LeftHand  -0.597228 -3.98966 7.6591
RightShoulder  1.44245 2.04045 19.6471
RightArm  -16.2815 11.9455 43.2218
RightForeArm  82.0844 79.5815 89.0021
RightHand  -0.12301 7.82359 -1.44761
LeftUpLeg  -0.630378 1.2259 4.38453
LeftLeg  -4.14247 6.74613 -0.556198
LeftFoot  2.86368 0.695818 -5.72169
LeftToes  4.78049e-008 1.46235e-008 1.34219e-009
300
root  -3.76633 40.9629 -1.16061 0.195358 -80.7646 2.39165
RightUpLeg  2.24212 -1.19942 0.308372
RightLeg  -5.502 -29.1232 3.85067
RightFoot  0.302589 -0.0464271 0.541189
RightToes  -3.1126e-008 1.75238e-005 3.56266e-009
Spine  6.52072 3.31476 2.75844
Spine1  -11.3923 3.72553 -4.84082
HEad  -0.226941 -4.63283 -0.0834694
LeftShoulder1  0.406977 1.82157 -17.5443
LeftArm  -21.5728 29.8467 -56.5317
LeftForeArm  99.3436 -80.512 -85.6995
LeftHand  -0.560035 -3.95828 7.22329
RightShoulder  1.43461 2.04098 19.4825
RightArm  -17.5919 16.7406 43.1506
RightForeArm  80.6109 79.5707 87.5809
RightHand  -0.148741 8.22833 -1.64409
LeftUpLeg  0.0711186 1.2032 4.35183
LeftLeg  -4.44569 8.54329 -0.557341
LeftFoot  2.77764 0.672139 -5.56208
LeftToes  4.78049e-008 1.46235e-008 1.34219e-009
301
root  -3.84523 40.9716 -1.13371 0.440994 -82.5383 2.16936
RightUpLeg  2.22929 -1.07755 0.334271
RightLeg  -5.49576 -27.4747 3.70937
RightFoot  0.396695 -0.0491247 0.585189
RightToes  -3.1126e-008 1.75238e-005 3.56266e-009
Spine  6.43533 3.72965 4.03908
Spine1  -11.5837 4.27148 -6.58158
HEad  0.259747 -4.47268 0.0576501
LeftShoulder1  0.238999 2.49369 -16.8422
LeftArm  -24.0163 36.6615 -59.5059
LeftForeArm  103.092 -80.5655 -88.8082
LeftHand  -0.549236 -3.9895 7.06664
RightShoulder  1.28327 1.56603 18.899
RightArm  -19.3705 21.0893 44.3255
RightForeArm  79.6805 79.5377 87.3223
RightHand  -0.101427 8.2622 -1.23841
LeftUpLeg  0.620087 1.40662 4.4751
LeftLeg  -4.7173 10.0348 -0.770512
LeftFoot  2.63473 0.663499 -5.54152
LeftToes  4.78049e-008 1.46235e-008 1.34219e-009
